<svg width="64" height="64" viewBox="0 0 64 64" fill="none" xmlns="http://www.w3.org/2000/svg">
<mask id="mask0_19_271" style="mask-type:alpha" maskUnits="userSpaceOnUse" x="0" y="0" width="64" height="64">
<rect width="64" height="64" fill="#D9D9D9"/>
</mask>
<g mask="url(#mask0_19_271)">
<path d="M27.6 52.8L28.4 49.0666C28.5334 48.4889 28.8112 48.0111 29.2334 47.6333C29.6556 47.2555 30.1778 47.0222 30.8 46.9333L39.0667 46.2666C39.6445 46.1778 40.1778 46.2889 40.6667 46.6C41.1556 46.9111 41.5112 47.3333 41.7334 47.8666L42.8 50.4C44.5334 49.3778 46.0889 48.1444 47.4667 46.7C48.8445 45.2555 50 43.6444 50.9334 41.8666L50.1334 41.4666C49.6445 41.1111 49.2889 40.6778 49.0667 40.1666C48.8445 39.6555 48.8 39.1111 48.9334 38.5333L50.8 30.4C50.9334 29.8666 51.2112 29.4222 51.6334 29.0666C52.0556 28.7111 52.5334 28.4889 53.0667 28.4C52.8445 27.2889 52.5667 26.2111 52.2334 25.1666C51.9 24.1222 51.4667 23.1111 50.9334 22.1333C50.5334 22.3555 50.1 22.4555 49.6334 22.4333C49.1667 22.4111 48.7556 22.2666 48.4 22L41.3334 17.7333C40.8445 17.4222 40.4889 17 40.2667 16.4666C40.0445 15.9333 40 15.3778 40.1334 14.8L40.6667 12.5333C39.2889 11.9111 37.8778 11.4444 36.4334 11.1333C34.9889 10.8222 33.5112 10.6666 32 10.6666C31.3778 10.6666 30.7334 10.7 30.0667 10.7666C29.4 10.8333 28.7556 10.9333 28.1334 11.0666L30.1334 15.6C30.3556 16.1333 30.4112 16.6889 30.3 17.2666C30.1889 17.8444 29.9112 18.3111 29.4667 18.6666L23.2 24.1333C22.7556 24.5333 22.2334 24.7555 21.6334 24.8C21.0334 24.8444 20.4889 24.7111 20 24.4L13.8667 20.6666C12.8445 22.3555 12.0556 24.1666 11.5 26.1C10.9445 28.0333 10.6667 30 10.6667 32C10.6667 32.7111 10.7556 33.8666 10.9334 35.4666L16.8 34.9333C17.4223 34.8444 17.9889 34.9444 18.5 35.2333C19.0112 35.5222 19.3778 35.9555 19.6 36.5333L22.8 44.1333C23.0223 44.6666 23.0778 45.2222 22.9667 45.8C22.8556 46.3778 22.5778 46.8444 22.1334 47.2L19.6 49.3333C20.8 50.2222 22.0778 50.9555 23.4334 51.5333C24.7889 52.1111 26.1778 52.5333 27.6 52.8ZM32.4 41.3333C31.8223 41.4222 31.2889 41.3111 30.8 41C30.3112 40.6889 29.9556 40.2666 29.7334 39.7333L26.1334 31.4666C25.9112 30.9333 25.8778 30.3778 26.0334 29.8C26.1889 29.2222 26.4889 28.7555 26.9334 28.4L33.7334 22.6666C34.1334 22.2666 34.6223 22.0444 35.2 22C35.7778 21.9555 36.3112 22.0889 36.8 22.4L44.2667 26.8C44.7556 27.1111 45.1334 27.5333 45.4 28.0666C45.6667 28.6 45.7334 29.1555 45.6 29.7333L43.4667 38.4C43.3334 38.9778 43.0667 39.4555 42.6667 39.8333C42.2667 40.2111 41.7778 40.4444 41.2 40.5333L32.4 41.3333ZM32 58.6666C28.3112 58.6666 24.8445 57.9666 21.6 56.5666C18.3556 55.1666 15.5334 53.2667 13.1334 50.8666C10.7334 48.4666 8.83337 45.6444 7.43337 42.4C6.03337 39.1555 5.33337 35.6889 5.33337 32C5.33337 28.3111 6.03337 24.8444 7.43337 21.6C8.83337 18.3555 10.7334 15.5333 13.1334 13.1333C15.5334 10.7333 18.3556 8.83331 21.6 7.43331C24.8445 6.03331 28.3112 5.33331 32 5.33331C35.6889 5.33331 39.1556 6.03331 42.4 7.43331C45.6445 8.83331 48.4667 10.7333 50.8667 13.1333C53.2667 15.5333 55.1667 18.3555 56.5667 21.6C57.9667 24.8444 58.6667 28.3111 58.6667 32C58.6667 35.6889 57.9667 39.1555 56.5667 42.4C55.1667 45.6444 53.2667 48.4666 50.8667 50.8666C48.4667 53.2667 45.6445 55.1666 42.4 56.5666C39.1556 57.9666 35.6889 58.6666 32 58.6666Z" fill="#D9D9D9" fill-opacity="0.45"/>
</g>
</svg>
